<svg width="1679" height="996" viewBox="0 0 1679 996" fill="none" xmlns="http://www.w3.org/2000/svg">
<g clip-path="url(#clip0_6722_578)">
<path d="M0 12C0 5.37258 5.37258 0 12 0H1667C1673.63 0 1679 5.37258 1679 12V984C1679 990.627 1673.63 996 1667 996H12C5.37262 996 0 990.627 0 984V12Z" fill="#6941C6"/>
<g clip-path="url(#clip1_6722_578)">
<path opacity="0.1" d="M246.667 543.379V9.38379M356.136 543.379V9.38379M465.605 543.379V9.38379M575.074 543.379V9.38379M684.543 543.379V9.38379M794.012 543.379V9.38379M875.994 442.527H164M875.994 332.613H164M875.994 222.699H164M875.994 112.785H164" stroke="white" stroke-width="1.25" stroke-miterlimit="10"/>
<g opacity="0.3">
<path d="M245.705 102.114H247.612V123.474H245.705V102.114Z" stroke="white" stroke-width="1.77998" stroke-miterlimit="10"/>
<path d="M235.979 113.748V111.841H257.338V113.748H235.979Z" stroke="white" stroke-width="1.77998" stroke-miterlimit="10"/>
<path d="M245.705 212.02H247.612V233.379H245.705V212.02Z" stroke="white" stroke-width="1.77998" stroke-miterlimit="10"/>
<path d="M235.979 223.653V221.746H257.338V223.653H235.979Z" stroke="white" stroke-width="1.77998" stroke-miterlimit="10"/>
<path d="M574.112 102.114H576.019V123.474H574.112V102.114Z" stroke="white" stroke-width="1.77998" stroke-miterlimit="10"/>
<path d="M564.386 113.748V111.841H585.745V113.748H564.386Z" stroke="white" stroke-width="1.77998" stroke-miterlimit="10"/>
<path d="M574.087 212.02H575.994V233.379H574.087V212.02Z" stroke="white" stroke-width="1.77998" stroke-miterlimit="10"/>
<path d="M564.361 223.653V221.746H585.721V223.653H564.361Z" stroke="white" stroke-width="1.77998" stroke-miterlimit="10"/>
<path d="M355.174 102.114H357.081V123.474H355.174V102.114Z" stroke="white" stroke-width="1.77998" stroke-miterlimit="10"/>
<path d="M345.448 113.748V111.841H366.807V113.748H345.448Z" stroke="white" stroke-width="1.77998" stroke-miterlimit="10"/>
<path d="M355.174 212.02H357.081V233.379H355.174V212.02Z" stroke="white" stroke-width="1.77998" stroke-miterlimit="10"/>
<path d="M345.448 223.653V221.746H366.807V223.653H345.448Z" stroke="white" stroke-width="1.77998" stroke-miterlimit="10"/>
<path d="M683.581 102.114H685.488V123.474H683.581V102.114Z" stroke="white" stroke-width="1.77998" stroke-miterlimit="10"/>
<path d="M673.855 113.748V111.841H695.215V113.748H673.855Z" stroke="white" stroke-width="1.77998" stroke-miterlimit="10"/>
<path d="M683.556 212.02H685.463V233.379H683.556V212.02Z" stroke="white" stroke-width="1.77998" stroke-miterlimit="10"/>
<path d="M673.83 223.653V221.746H695.19V223.653H673.83Z" stroke="white" stroke-width="1.77998" stroke-miterlimit="10"/>
<path d="M464.643 102.114H466.55V123.474H464.643V102.114Z" stroke="white" stroke-width="1.77998" stroke-miterlimit="10"/>
<path d="M454.917 113.748V111.841H476.276V113.748H454.917Z" stroke="white" stroke-width="1.77998" stroke-miterlimit="10"/>
<path d="M464.618 212.02H466.525V233.379H464.618V212.02Z" stroke="white" stroke-width="1.77998" stroke-miterlimit="10"/>
<path d="M454.892 223.653V221.746H476.252V223.653H454.892Z" stroke="white" stroke-width="1.77998" stroke-miterlimit="10"/>
<path d="M793.05 102.114H794.957V123.474H793.05V102.114Z" stroke="white" stroke-width="1.77998" stroke-miterlimit="10"/>
<path d="M783.324 113.748V111.841H804.684V113.748H783.324Z" stroke="white" stroke-width="1.77998" stroke-miterlimit="10"/>
<path d="M793.025 212.02H794.932V233.379H793.025V212.02Z" stroke="white" stroke-width="1.77998" stroke-miterlimit="10"/>
<path d="M783.299 223.653V221.746H804.659V223.653H783.299Z" stroke="white" stroke-width="1.77998" stroke-miterlimit="10"/>
<path d="M245.705 321.925H247.612V343.285H245.705V321.925Z" stroke="white" stroke-width="1.77998" stroke-miterlimit="10"/>
<path d="M235.979 333.558V331.651H257.338V333.558H235.979Z" stroke="white" stroke-width="1.77998" stroke-miterlimit="10"/>
<path d="M574.087 321.925H575.994V343.285H574.087V321.925Z" stroke="white" stroke-width="1.77998" stroke-miterlimit="10"/>
<path d="M564.361 333.558V331.651H585.721V333.558H564.361Z" stroke="white" stroke-width="1.77998" stroke-miterlimit="10"/>
<path d="M355.174 321.925H357.081V343.285H355.174V321.925Z" stroke="white" stroke-width="1.77998" stroke-miterlimit="10"/>
<path d="M345.448 333.558V331.651H366.807V333.558H345.448Z" stroke="white" stroke-width="1.77998" stroke-miterlimit="10"/>
<path d="M683.556 321.925H685.463V343.285H683.556V321.925Z" stroke="white" stroke-width="1.77998" stroke-miterlimit="10"/>
<path d="M673.83 333.558V331.651H695.19V333.558H673.83Z" stroke="white" stroke-width="1.77998" stroke-miterlimit="10"/>
<path d="M464.618 321.925H466.525V343.285H464.618V321.925Z" stroke="white" stroke-width="1.77998" stroke-miterlimit="10"/>
<path d="M454.892 333.558V331.651H476.252V333.558H454.892Z" stroke="white" stroke-width="1.77998" stroke-miterlimit="10"/>
<path d="M793.025 321.925H794.932V343.285H793.025V321.925Z" stroke="white" stroke-width="1.77998" stroke-miterlimit="10"/>
<path d="M783.299 333.558V331.651H804.659V333.558H783.299Z" stroke="white" stroke-width="1.77998" stroke-miterlimit="10"/>
<path d="M245.705 431.83H247.612V453.19H245.705V431.83Z" stroke="white" stroke-width="1.77998" stroke-miterlimit="10"/>
<path d="M235.979 443.464V441.557H257.338V443.464H235.979Z" stroke="white" stroke-width="1.77998" stroke-miterlimit="10"/>
<path d="M574.087 431.83H575.994V453.19H574.087V431.83Z" stroke="white" stroke-width="1.77998" stroke-miterlimit="10"/>
<path d="M564.361 443.464V441.557H585.721V443.464H564.361Z" stroke="white" stroke-width="1.77998" stroke-miterlimit="10"/>
<path d="M355.174 431.83H357.081V453.19H355.174V431.83Z" stroke="white" stroke-width="1.77998" stroke-miterlimit="10"/>
<path d="M345.448 443.464V441.557H366.807V443.464H345.448Z" stroke="white" stroke-width="1.77998" stroke-miterlimit="10"/>
<path d="M683.556 431.83H685.463V453.19H683.556V431.83Z" stroke="white" stroke-width="1.77998" stroke-miterlimit="10"/>
<path d="M673.83 443.464V441.557H695.19V443.464H673.83Z" stroke="white" stroke-width="1.77998" stroke-miterlimit="10"/>
<path d="M464.618 431.83H466.525V453.19H464.618V431.83Z" stroke="white" stroke-width="1.77998" stroke-miterlimit="10"/>
<path d="M454.892 443.464V441.557H476.252V443.464H454.892Z" stroke="white" stroke-width="1.77998" stroke-miterlimit="10"/>
<path d="M793.025 431.83H794.932V453.19H793.025V431.83Z" stroke="white" stroke-width="1.77998" stroke-miterlimit="10"/>
<path d="M783.299 443.464V441.557H804.659V443.464H783.299Z" stroke="white" stroke-width="1.77998" stroke-miterlimit="10"/>
</g>
</g>
<g clip-path="url(#clip2_6722_578)">
<path opacity="0.1" d="M887.673 543.379V9.38379M997.142 543.379V9.38379M1106.61 543.379V9.38379M1216.08 543.379V9.38379M1325.55 543.379V9.38379M1435.02 543.379V9.38379M1517 442.527H805.006M1517 332.613H805.006M1517 222.699H805.006M1517 112.785H805.006" stroke="white" stroke-width="1.25" stroke-miterlimit="10"/>
<g opacity="0.3">
<path d="M886.711 102.114H888.618V123.474H886.711V102.114Z" stroke="white" stroke-width="1.77998" stroke-miterlimit="10"/>
<path d="M876.984 113.748V111.841H898.344V113.748H876.984Z" stroke="white" stroke-width="1.77998" stroke-miterlimit="10"/>
<path d="M886.711 212.02H888.618V233.379H886.711V212.02Z" stroke="white" stroke-width="1.77998" stroke-miterlimit="10"/>
<path d="M876.984 223.653V221.746H898.344V223.653H876.984Z" stroke="white" stroke-width="1.77998" stroke-miterlimit="10"/>
<path d="M1215.12 102.114H1217.03V123.474H1215.12V102.114Z" stroke="white" stroke-width="1.77998" stroke-miterlimit="10"/>
<path d="M1205.39 113.748V111.841H1226.75V113.748H1205.39Z" stroke="white" stroke-width="1.77998" stroke-miterlimit="10"/>
<path d="M1215.09 212.02H1217V233.379H1215.09V212.02Z" stroke="white" stroke-width="1.77998" stroke-miterlimit="10"/>
<path d="M1205.37 223.653V221.746H1226.73V223.653H1205.37Z" stroke="white" stroke-width="1.77998" stroke-miterlimit="10"/>
<path d="M996.18 102.114H998.087V123.474H996.18V102.114Z" stroke="white" stroke-width="1.77998" stroke-miterlimit="10"/>
<path d="M986.453 113.748V111.841H1007.81V113.748H986.453Z" stroke="white" stroke-width="1.77998" stroke-miterlimit="10"/>
<path d="M996.18 212.02H998.087V233.379H996.18V212.02Z" stroke="white" stroke-width="1.77998" stroke-miterlimit="10"/>
<path d="M986.453 223.653V221.746H1007.81V223.653H986.453Z" stroke="white" stroke-width="1.77998" stroke-miterlimit="10"/>
<path d="M1324.59 102.114H1326.49V123.474H1324.59V102.114Z" stroke="white" stroke-width="1.77998" stroke-miterlimit="10"/>
<path d="M1314.86 113.748V111.841H1336.22V113.748H1314.86Z" stroke="white" stroke-width="1.77998" stroke-miterlimit="10"/>
<path d="M1324.56 212.02H1326.47V233.379H1324.56V212.02Z" stroke="white" stroke-width="1.77998" stroke-miterlimit="10"/>
<path d="M1314.84 223.653V221.746H1336.2V223.653H1314.84Z" stroke="white" stroke-width="1.77998" stroke-miterlimit="10"/>
<path d="M1105.65 102.114H1107.56V123.474H1105.65V102.114Z" stroke="white" stroke-width="1.77998" stroke-miterlimit="10"/>
<path d="M1095.92 113.748V111.841H1117.28V113.748H1095.92Z" stroke="white" stroke-width="1.77998" stroke-miterlimit="10"/>
<path d="M1105.62 212.02H1107.53V233.379H1105.62V212.02Z" stroke="white" stroke-width="1.77998" stroke-miterlimit="10"/>
<path d="M1095.9 223.653V221.746H1117.26V223.653H1095.9Z" stroke="white" stroke-width="1.77998" stroke-miterlimit="10"/>
<path d="M1434.06 102.114H1435.96V123.474H1434.06V102.114Z" stroke="white" stroke-width="1.77998" stroke-miterlimit="10"/>
<path d="M1424.33 113.748V111.841H1445.69V113.748H1424.33Z" stroke="white" stroke-width="1.77998" stroke-miterlimit="10"/>
<path d="M1434.03 212.02H1435.94V233.379H1434.03V212.02Z" stroke="white" stroke-width="1.77998" stroke-miterlimit="10"/>
<path d="M1424.3 223.653V221.746H1445.66V223.653H1424.3Z" stroke="white" stroke-width="1.77998" stroke-miterlimit="10"/>
<path d="M886.711 321.925H888.618V343.285H886.711V321.925Z" stroke="white" stroke-width="1.77998" stroke-miterlimit="10"/>
<path d="M876.984 333.558V331.651H898.344V333.558H876.984Z" stroke="white" stroke-width="1.77998" stroke-miterlimit="10"/>
<path d="M1215.09 321.925H1217V343.285H1215.09V321.925Z" stroke="white" stroke-width="1.77998" stroke-miterlimit="10"/>
<path d="M1205.37 333.558V331.651H1226.73V333.558H1205.37Z" stroke="white" stroke-width="1.77998" stroke-miterlimit="10"/>
<path d="M996.18 321.925H998.087V343.285H996.18V321.925Z" stroke="white" stroke-width="1.77998" stroke-miterlimit="10"/>
<path d="M986.453 333.558V331.651H1007.81V333.558H986.453Z" stroke="white" stroke-width="1.77998" stroke-miterlimit="10"/>
<path d="M1324.56 321.925H1326.47V343.285H1324.56V321.925Z" stroke="white" stroke-width="1.77998" stroke-miterlimit="10"/>
<path d="M1314.84 333.558V331.651H1336.2V333.558H1314.84Z" stroke="white" stroke-width="1.77998" stroke-miterlimit="10"/>
<path d="M1105.62 321.925H1107.53V343.285H1105.62V321.925Z" stroke="white" stroke-width="1.77998" stroke-miterlimit="10"/>
<path d="M1095.9 333.558V331.651H1117.26V333.558H1095.9Z" stroke="white" stroke-width="1.77998" stroke-miterlimit="10"/>
<path d="M1434.03 321.925H1435.94V343.285H1434.03V321.925Z" stroke="white" stroke-width="1.77998" stroke-miterlimit="10"/>
<path d="M1424.3 333.558V331.651H1445.66V333.558H1424.3Z" stroke="white" stroke-width="1.77998" stroke-miterlimit="10"/>
<path d="M886.711 431.83H888.618V453.19H886.711V431.83Z" stroke="white" stroke-width="1.77998" stroke-miterlimit="10"/>
<path d="M876.984 443.464V441.557H898.344V443.464H876.984Z" stroke="white" stroke-width="1.77998" stroke-miterlimit="10"/>
<path d="M1215.09 431.83H1217V453.19H1215.09V431.83Z" stroke="white" stroke-width="1.77998" stroke-miterlimit="10"/>
<path d="M1205.37 443.464V441.557H1226.73V443.464H1205.37Z" stroke="white" stroke-width="1.77998" stroke-miterlimit="10"/>
<path d="M996.18 431.83H998.087V453.19H996.18V431.83Z" stroke="white" stroke-width="1.77998" stroke-miterlimit="10"/>
<path d="M986.453 443.464V441.557H1007.81V443.464H986.453Z" stroke="white" stroke-width="1.77998" stroke-miterlimit="10"/>
<path d="M1324.56 431.83H1326.47V453.19H1324.56V431.83Z" stroke="white" stroke-width="1.77998" stroke-miterlimit="10"/>
<path d="M1314.84 443.464V441.557H1336.2V443.464H1314.84Z" stroke="white" stroke-width="1.77998" stroke-miterlimit="10"/>
<path d="M1105.62 431.83H1107.53V453.19H1105.62V431.83Z" stroke="white" stroke-width="1.77998" stroke-miterlimit="10"/>
<path d="M1095.9 443.464V441.557H1117.26V443.464H1095.9Z" stroke="white" stroke-width="1.77998" stroke-miterlimit="10"/>
<path d="M1434.03 431.83H1435.94V453.19H1434.03V431.83Z" stroke="white" stroke-width="1.77998" stroke-miterlimit="10"/>
<path d="M1424.3 443.464V441.557H1445.66V443.464H1424.3Z" stroke="white" stroke-width="1.77998" stroke-miterlimit="10"/>
</g>
</g>
<g clip-path="url(#clip3_6722_578)">
<path opacity="0.1" d="M246.667 986.256V452.261M356.136 986.256V452.261M465.605 986.256V452.261M575.074 986.256V452.261M684.543 986.256V452.261M794.012 986.256V452.261M875.994 885.404H164M875.994 775.49H164M875.994 665.576H164M875.994 555.662H164" stroke="white" stroke-width="1.25" stroke-miterlimit="10"/>
<g opacity="0.3">
<path d="M245.705 544.992H247.612V566.352H245.705V544.992Z" stroke="white" stroke-width="1.77998" stroke-miterlimit="10"/>
<path d="M235.979 556.625V554.718H257.338V556.625H235.979Z" stroke="white" stroke-width="1.77998" stroke-miterlimit="10"/>
<path d="M245.705 654.897H247.612V676.257H245.705V654.897Z" stroke="white" stroke-width="1.77998" stroke-miterlimit="10"/>
<path d="M235.979 666.531V664.623H257.338V666.531H235.979Z" stroke="white" stroke-width="1.77998" stroke-miterlimit="10"/>
<path d="M574.112 544.992H576.019V566.352H574.112V544.992Z" stroke="white" stroke-width="1.77998" stroke-miterlimit="10"/>
<path d="M564.386 556.625V554.718H585.745V556.625H564.386Z" stroke="white" stroke-width="1.77998" stroke-miterlimit="10"/>
<path d="M574.087 654.897H575.994V676.257H574.087V654.897Z" stroke="white" stroke-width="1.77998" stroke-miterlimit="10"/>
<path d="M564.361 666.531V664.623H585.721V666.531H564.361Z" stroke="white" stroke-width="1.77998" stroke-miterlimit="10"/>
<path d="M355.174 544.992H357.081V566.352H355.174V544.992Z" stroke="white" stroke-width="1.77998" stroke-miterlimit="10"/>
<path d="M345.448 556.625V554.718H366.807V556.625H345.448Z" stroke="white" stroke-width="1.77998" stroke-miterlimit="10"/>
<path d="M355.174 654.897H357.081V676.257H355.174V654.897Z" stroke="white" stroke-width="1.77998" stroke-miterlimit="10"/>
<path d="M345.448 666.531V664.623H366.807V666.531H345.448Z" stroke="white" stroke-width="1.77998" stroke-miterlimit="10"/>
<path d="M683.581 544.992H685.488V566.352H683.581V544.992Z" stroke="white" stroke-width="1.77998" stroke-miterlimit="10"/>
<path d="M673.855 556.625V554.718H695.215V556.625H673.855Z" stroke="white" stroke-width="1.77998" stroke-miterlimit="10"/>
<path d="M683.556 654.897H685.463V676.257H683.556V654.897Z" stroke="white" stroke-width="1.77998" stroke-miterlimit="10"/>
<path d="M673.83 666.531V664.623H695.19V666.531H673.83Z" stroke="white" stroke-width="1.77998" stroke-miterlimit="10"/>
<path d="M464.643 544.992H466.55V566.352H464.643V544.992Z" stroke="white" stroke-width="1.77998" stroke-miterlimit="10"/>
<path d="M454.917 556.625V554.718H476.276V556.625H454.917Z" stroke="white" stroke-width="1.77998" stroke-miterlimit="10"/>
<path d="M464.618 654.897H466.525V676.257H464.618V654.897Z" stroke="white" stroke-width="1.77998" stroke-miterlimit="10"/>
<path d="M454.892 666.531V664.623H476.252V666.531H454.892Z" stroke="white" stroke-width="1.77998" stroke-miterlimit="10"/>
<path d="M793.05 544.992H794.957V566.352H793.05V544.992Z" stroke="white" stroke-width="1.77998" stroke-miterlimit="10"/>
<path d="M783.324 556.625V554.718H804.684V556.625H783.324Z" stroke="white" stroke-width="1.77998" stroke-miterlimit="10"/>
<path d="M793.025 654.897H794.932V676.257H793.025V654.897Z" stroke="white" stroke-width="1.77998" stroke-miterlimit="10"/>
<path d="M783.299 666.531V664.623H804.659V666.531H783.299Z" stroke="white" stroke-width="1.77998" stroke-miterlimit="10"/>
<path d="M245.705 764.802H247.612V786.162H245.705V764.802Z" stroke="white" stroke-width="1.77998" stroke-miterlimit="10"/>
<path d="M235.979 776.436V774.529H257.338V776.436H235.979Z" stroke="white" stroke-width="1.77998" stroke-miterlimit="10"/>
<path d="M574.087 764.802H575.994V786.162H574.087V764.802Z" stroke="white" stroke-width="1.77998" stroke-miterlimit="10"/>
<path d="M564.361 776.436V774.529H585.721V776.436H564.361Z" stroke="white" stroke-width="1.77998" stroke-miterlimit="10"/>
<path d="M355.174 764.802H357.081V786.162H355.174V764.802Z" stroke="white" stroke-width="1.77998" stroke-miterlimit="10"/>
<path d="M345.448 776.436V774.529H366.807V776.436H345.448Z" stroke="white" stroke-width="1.77998" stroke-miterlimit="10"/>
<path d="M683.556 764.802H685.463V786.162H683.556V764.802Z" stroke="white" stroke-width="1.77998" stroke-miterlimit="10"/>
<path d="M673.83 776.436V774.529H695.19V776.436H673.83Z" stroke="white" stroke-width="1.77998" stroke-miterlimit="10"/>
<path d="M464.618 764.802H466.525V786.162H464.618V764.802Z" stroke="white" stroke-width="1.77998" stroke-miterlimit="10"/>
<path d="M454.892 776.436V774.529H476.252V776.436H454.892Z" stroke="white" stroke-width="1.77998" stroke-miterlimit="10"/>
<path d="M793.025 764.802H794.932V786.162H793.025V764.802Z" stroke="white" stroke-width="1.77998" stroke-miterlimit="10"/>
<path d="M783.299 776.436V774.529H804.659V776.436H783.299Z" stroke="white" stroke-width="1.77998" stroke-miterlimit="10"/>
<path d="M245.705 874.708H247.612V896.068H245.705V874.708Z" stroke="white" stroke-width="1.77998" stroke-miterlimit="10"/>
<path d="M235.979 886.341V884.434H257.338V886.341H235.979Z" stroke="white" stroke-width="1.77998" stroke-miterlimit="10"/>
<path d="M574.087 874.708H575.994V896.068H574.087V874.708Z" stroke="white" stroke-width="1.77998" stroke-miterlimit="10"/>
<path d="M564.361 886.341V884.434H585.721V886.341H564.361Z" stroke="white" stroke-width="1.77998" stroke-miterlimit="10"/>
<path d="M355.174 874.708H357.081V896.068H355.174V874.708Z" stroke="white" stroke-width="1.77998" stroke-miterlimit="10"/>
<path d="M345.448 886.341V884.434H366.807V886.341H345.448Z" stroke="white" stroke-width="1.77998" stroke-miterlimit="10"/>
<path d="M683.556 874.708H685.463V896.068H683.556V874.708Z" stroke="white" stroke-width="1.77998" stroke-miterlimit="10"/>
<path d="M673.83 886.341V884.434H695.19V886.341H673.83Z" stroke="white" stroke-width="1.77998" stroke-miterlimit="10"/>
<path d="M464.618 874.708H466.525V896.068H464.618V874.708Z" stroke="white" stroke-width="1.77998" stroke-miterlimit="10"/>
<path d="M454.892 886.341V884.434H476.252V886.341H454.892Z" stroke="white" stroke-width="1.77998" stroke-miterlimit="10"/>
<path d="M793.025 874.708H794.932V896.068H793.025V874.708Z" stroke="white" stroke-width="1.77998" stroke-miterlimit="10"/>
<path d="M783.299 886.341V884.434H804.659V886.341H783.299Z" stroke="white" stroke-width="1.77998" stroke-miterlimit="10"/>
</g>
</g>
<g clip-path="url(#clip4_6722_578)">
<path opacity="0.1" d="M887.673 986.256V452.261M997.142 986.256V452.261M1106.61 986.256V452.261M1216.08 986.256V452.261M1325.55 986.256V452.261M1435.02 986.256V452.261M1517 885.404H805.006M1517 775.49H805.006M1517 665.576H805.006M1517 555.662H805.006" stroke="white" stroke-width="1.25" stroke-miterlimit="10"/>
<g opacity="0.3">
<path d="M886.711 544.992H888.618V566.352H886.711V544.992Z" stroke="white" stroke-width="1.77998" stroke-miterlimit="10"/>
<path d="M876.984 556.625V554.718H898.344V556.625H876.984Z" stroke="white" stroke-width="1.77998" stroke-miterlimit="10"/>
<path d="M886.711 654.897H888.618V676.257H886.711V654.897Z" stroke="white" stroke-width="1.77998" stroke-miterlimit="10"/>
<path d="M876.984 666.531V664.623H898.344V666.531H876.984Z" stroke="white" stroke-width="1.77998" stroke-miterlimit="10"/>
<path d="M1215.12 544.992H1217.03V566.352H1215.12V544.992Z" stroke="white" stroke-width="1.77998" stroke-miterlimit="10"/>
<path d="M1205.39 556.625V554.718H1226.75V556.625H1205.39Z" stroke="white" stroke-width="1.77998" stroke-miterlimit="10"/>
<path d="M1215.09 654.897H1217V676.257H1215.09V654.897Z" stroke="white" stroke-width="1.77998" stroke-miterlimit="10"/>
<path d="M1205.37 666.531V664.623H1226.73V666.531H1205.37Z" stroke="white" stroke-width="1.77998" stroke-miterlimit="10"/>
<path d="M996.18 544.992H998.087V566.352H996.18V544.992Z" stroke="white" stroke-width="1.77998" stroke-miterlimit="10"/>
<path d="M986.453 556.625V554.718H1007.81V556.625H986.453Z" stroke="white" stroke-width="1.77998" stroke-miterlimit="10"/>
<path d="M996.18 654.897H998.087V676.257H996.18V654.897Z" stroke="white" stroke-width="1.77998" stroke-miterlimit="10"/>
<path d="M986.453 666.531V664.623H1007.81V666.531H986.453Z" stroke="white" stroke-width="1.77998" stroke-miterlimit="10"/>
<path d="M1324.59 544.992H1326.49V566.352H1324.59V544.992Z" stroke="white" stroke-width="1.77998" stroke-miterlimit="10"/>
<path d="M1314.86 556.625V554.718H1336.22V556.625H1314.86Z" stroke="white" stroke-width="1.77998" stroke-miterlimit="10"/>
<path d="M1324.56 654.897H1326.47V676.257H1324.56V654.897Z" stroke="white" stroke-width="1.77998" stroke-miterlimit="10"/>
<path d="M1314.84 666.531V664.623H1336.2V666.531H1314.84Z" stroke="white" stroke-width="1.77998" stroke-miterlimit="10"/>
<path d="M1105.65 544.992H1107.56V566.352H1105.65V544.992Z" stroke="white" stroke-width="1.77998" stroke-miterlimit="10"/>
<path d="M1095.92 556.625V554.718H1117.28V556.625H1095.92Z" stroke="white" stroke-width="1.77998" stroke-miterlimit="10"/>
<path d="M1105.62 654.897H1107.53V676.257H1105.62V654.897Z" stroke="white" stroke-width="1.77998" stroke-miterlimit="10"/>
<path d="M1095.9 666.531V664.623H1117.26V666.531H1095.9Z" stroke="white" stroke-width="1.77998" stroke-miterlimit="10"/>
<path d="M1434.06 544.992H1435.96V566.352H1434.06V544.992Z" stroke="white" stroke-width="1.77998" stroke-miterlimit="10"/>
<path d="M1424.33 556.625V554.718H1445.69V556.625H1424.33Z" stroke="white" stroke-width="1.77998" stroke-miterlimit="10"/>
<path d="M1434.03 654.897H1435.94V676.257H1434.03V654.897Z" stroke="white" stroke-width="1.77998" stroke-miterlimit="10"/>
<path d="M1424.3 666.531V664.623H1445.66V666.531H1424.3Z" stroke="white" stroke-width="1.77998" stroke-miterlimit="10"/>
<path d="M886.711 764.802H888.618V786.162H886.711V764.802Z" stroke="white" stroke-width="1.77998" stroke-miterlimit="10"/>
<path d="M876.984 776.436V774.529H898.344V776.436H876.984Z" stroke="white" stroke-width="1.77998" stroke-miterlimit="10"/>
<path d="M1215.09 764.802H1217V786.162H1215.09V764.802Z" stroke="white" stroke-width="1.77998" stroke-miterlimit="10"/>
<path d="M1205.37 776.436V774.529H1226.73V776.436H1205.37Z" stroke="white" stroke-width="1.77998" stroke-miterlimit="10"/>
<path d="M996.18 764.802H998.087V786.162H996.18V764.802Z" stroke="white" stroke-width="1.77998" stroke-miterlimit="10"/>
<path d="M986.453 776.436V774.529H1007.81V776.436H986.453Z" stroke="white" stroke-width="1.77998" stroke-miterlimit="10"/>
<path d="M1324.56 764.802H1326.47V786.162H1324.56V764.802Z" stroke="white" stroke-width="1.77998" stroke-miterlimit="10"/>
<path d="M1314.84 776.436V774.529H1336.2V776.436H1314.84Z" stroke="white" stroke-width="1.77998" stroke-miterlimit="10"/>
<path d="M1105.62 764.802H1107.53V786.162H1105.62V764.802Z" stroke="white" stroke-width="1.77998" stroke-miterlimit="10"/>
<path d="M1095.9 776.436V774.529H1117.26V776.436H1095.9Z" stroke="white" stroke-width="1.77998" stroke-miterlimit="10"/>
<path d="M1434.03 764.802H1435.94V786.162H1434.03V764.802Z" stroke="white" stroke-width="1.77998" stroke-miterlimit="10"/>
<path d="M1424.3 776.436V774.529H1445.66V776.436H1424.3Z" stroke="white" stroke-width="1.77998" stroke-miterlimit="10"/>
<path d="M886.711 874.708H888.618V896.068H886.711V874.708Z" stroke="white" stroke-width="1.77998" stroke-miterlimit="10"/>
<path d="M876.984 886.341V884.434H898.344V886.341H876.984Z" stroke="white" stroke-width="1.77998" stroke-miterlimit="10"/>
<path d="M1215.09 874.708H1217V896.068H1215.09V874.708Z" stroke="white" stroke-width="1.77998" stroke-miterlimit="10"/>
<path d="M1205.37 886.341V884.434H1226.73V886.341H1205.37Z" stroke="white" stroke-width="1.77998" stroke-miterlimit="10"/>
<path d="M996.18 874.708H998.087V896.068H996.18V874.708Z" stroke="white" stroke-width="1.77998" stroke-miterlimit="10"/>
<path d="M986.453 886.341V884.434H1007.81V886.341H986.453Z" stroke="white" stroke-width="1.77998" stroke-miterlimit="10"/>
<path d="M1324.56 874.708H1326.47V896.068H1324.56V874.708Z" stroke="white" stroke-width="1.77998" stroke-miterlimit="10"/>
<path d="M1314.84 886.341V884.434H1336.2V886.341H1314.84Z" stroke="white" stroke-width="1.77998" stroke-miterlimit="10"/>
<path d="M1105.62 874.708H1107.53V896.068H1105.62V874.708Z" stroke="white" stroke-width="1.77998" stroke-miterlimit="10"/>
<path d="M1095.9 886.341V884.434H1117.26V886.341H1095.9Z" stroke="white" stroke-width="1.77998" stroke-miterlimit="10"/>
<path d="M1434.03 874.708H1435.94V896.068H1434.03V874.708Z" stroke="white" stroke-width="1.77998" stroke-miterlimit="10"/>
<path d="M1424.3 886.341V884.434H1445.66V886.341H1424.3Z" stroke="white" stroke-width="1.77998" stroke-miterlimit="10"/>
</g>
</g>
<g clip-path="url(#clip5_6722_578)">
<mask id="mask0_6722_578" style="mask-type:alpha" maskUnits="userSpaceOnUse" x="-11" y="-21" width="1373" height="758">
<rect x="-11" y="-21" width="1373" height="758" fill="#574FCB"/>
</mask>
<g mask="url(#mask0_6722_578)">
<g filter="url(#filter0_f_6722_578)">
<rect x="-41" y="47" width="717" height="621" rx="310.5" fill="#574FCB"/>
</g>
<g filter="url(#filter1_f_6722_578)">
<rect x="-41" y="47" width="717" height="621" rx="310.5" fill="#574FCB"/>
</g>
<g filter="url(#filter2_f_6722_578)">
<rect x="-41" y="47" width="717" height="621" rx="310.5" fill="#574FCB"/>
</g>
</g>
</g>
</g>
<path d="M0.26975 12C0.26975 5.52155 5.52156 0.26975 12 0.26975H1667C1673.48 0.26975 1678.73 5.52156 1678.73 12V984C1678.73 990.478 1673.48 995.73 1667 995.73H12C5.5216 995.73 0.26975 990.478 0.26975 984V12Z" stroke="#EEF0F3" stroke-width="0.539499"/>
<defs>
<filter id="filter0_f_6722_578" x="-553" y="-465" width="1741" height="1645" filterUnits="userSpaceOnUse" color-interpolation-filters="sRGB">
<feFlood flood-opacity="0" result="BackgroundImageFix"/>
<feBlend mode="normal" in="SourceGraphic" in2="BackgroundImageFix" result="shape"/>
<feGaussianBlur stdDeviation="256" result="effect1_foregroundBlur_6722_578"/>
</filter>
<filter id="filter1_f_6722_578" x="-553" y="-465" width="1741" height="1645" filterUnits="userSpaceOnUse" color-interpolation-filters="sRGB">
<feFlood flood-opacity="0" result="BackgroundImageFix"/>
<feBlend mode="normal" in="SourceGraphic" in2="BackgroundImageFix" result="shape"/>
<feGaussianBlur stdDeviation="256" result="effect1_foregroundBlur_6722_578"/>
</filter>
<filter id="filter2_f_6722_578" x="-553" y="-465" width="1741" height="1645" filterUnits="userSpaceOnUse" color-interpolation-filters="sRGB">
<feFlood flood-opacity="0" result="BackgroundImageFix"/>
<feBlend mode="normal" in="SourceGraphic" in2="BackgroundImageFix" result="shape"/>
<feGaussianBlur stdDeviation="256" result="effect1_foregroundBlur_6722_578"/>
</filter>
<clipPath id="clip0_6722_578">
<path d="M0 12C0 5.37258 5.37258 0 12 0H1667C1673.63 0 1679 5.37258 1679 12V984C1679 990.627 1673.63 996 1667 996H12C5.37262 996 0 990.627 0 984V12Z" fill="white"/>
</clipPath>
<clipPath id="clip1_6722_578">
<rect width="711.994" height="533.995" fill="white" transform="translate(164 10)"/>
</clipPath>
<clipPath id="clip2_6722_578">
<rect width="641.006" height="533.995" fill="white" transform="translate(875.994 10)"/>
</clipPath>
<clipPath id="clip3_6722_578">
<rect width="711.994" height="533.995" fill="white" transform="translate(164 543.996)"/>
</clipPath>
<clipPath id="clip4_6722_578">
<rect width="641.006" height="533.995" fill="white" transform="translate(875.994 543.996)"/>
</clipPath>
<clipPath id="clip5_6722_578">
<rect width="1373" height="758" fill="white" transform="translate(-11 -21)"/>
</clipPath>
</defs>
</svg>
